<svg width="110" height="110" viewBox="0 0 110 110" fill="none" xmlns="http://www.w3.org/2000/svg">
<circle cx="55" cy="55" r="55" fill="#CC8640" fill-opacity="0.14"/>
<path fill-rule="evenodd" clip-rule="evenodd" d="M47.473 33C48.606 29.7963 51.6613 27.5 55.2528 27.5C58.8415 27.5 61.8968 29.7963 63.0298 33H70.3777C72.201 33 73.9445 33.7233 75.2342 35.013C76.5267 36.3028 77.2527 38.0518 77.2527 39.875V75.625C77.2527 79.4228 74.17 82.5 70.3777 82.5H40.125C36.3273 82.5 33.25 79.4228 33.25 75.625V39.875C33.25 38.0518 33.9732 36.3028 35.263 35.013C36.5527 33.7233 38.3018 33 40.125 33H47.473ZM58.0028 71.5H63.5028C65.018 71.5 66.2527 70.268 66.2527 68.75C66.2527 67.232 65.018 66 63.5028 66H58.0028C56.4848 66 55.2528 67.232 55.2528 68.75C55.2528 70.268 56.4848 71.5 58.0028 71.5ZM47.0028 60.5H63.5028C65.018 60.5 66.2527 59.268 66.2527 57.75C66.2527 56.232 65.018 55 63.5028 55H47.0028C45.4848 55 44.2528 56.232 44.2528 57.75C44.2528 59.268 45.4848 60.5 47.0028 60.5ZM47.0028 49.5H63.5028C65.018 49.5 66.2527 48.268 66.2527 46.75C66.2527 45.232 65.018 44 63.5028 44H47.0028C45.4848 44 44.2528 45.232 44.2528 46.75C44.2528 48.268 45.4848 49.5 47.0028 49.5Z" fill="#CC8640"/>
</svg>
