<svg width="110" height="110" viewBox="0 0 110 110" fill="none" xmlns="http://www.w3.org/2000/svg">
<circle cx="55" cy="55" r="55" fill="#CC8640" fill-opacity="0.14"/>
<path d="M36.8011 67.1701C36.9811 68.0601 37.7711 68.7001 38.6911 68.7001H40.3611C41.2811 68.7001 42.0611 68.0601 42.2511 67.1701L42.5511 65.7101C43.9811 65.3801 45.3111 64.8101 46.5211 64.0601L47.7611 64.8701C48.5211 65.3701 49.5311 65.2701 50.1811 64.6201L51.3611 63.4401C52.0111 62.7901 52.1111 61.7801 51.6111 61.0201L50.8011 59.7801C51.5511 58.5701 52.1211 57.2401 52.4511 55.8101L53.9111 55.5101C54.8011 55.3301 55.4411 54.5401 55.4411 53.6201V51.9501C55.4411 51.0301 54.8011 50.2501 53.9111 50.0601L52.4511 49.7601C52.1211 48.3301 51.5611 47.0001 50.8011 45.7901L51.6111 44.5501C52.1111 43.7901 52.0111 42.7801 51.3611 42.1301L50.1811 40.9501C49.5311 40.3001 48.5211 40.2001 47.7611 40.7001L46.5211 41.5101C45.3111 40.7601 43.9811 40.1901 42.5511 39.8601L42.2511 38.4001C42.0711 37.5101 41.2811 36.8701 40.3611 36.8701H38.6911C37.7711 36.8701 36.9911 37.5101 36.8011 38.4001L36.5011 39.8601C35.0711 40.1901 33.7411 40.7601 32.5411 41.5101L31.3011 40.7001C30.5411 40.2001 29.5311 40.3001 28.8811 40.9501L27.7011 42.1301C27.0511 42.7801 26.9511 43.7901 27.4511 44.5501L28.2611 45.7901C27.5011 47.0001 26.9411 48.3301 26.6111 49.7601L25.1511 50.0601C24.2611 50.2401 23.6211 51.0301 23.6211 51.9501V53.6201C23.6211 54.5401 24.2611 55.3201 25.1511 55.5101L26.6111 55.8101C26.9411 57.2401 27.5111 58.5701 28.2611 59.7801L27.4511 61.0201C26.9511 61.7801 27.0511 62.7901 27.7011 63.4401L28.8811 64.6201C29.5311 65.2701 30.5411 65.3701 31.3011 64.8701L32.5411 64.0601C33.7411 64.8101 35.0711 65.3801 36.5011 65.7101L36.8011 67.1701ZM33.0011 52.8001C33.0011 49.1901 35.9211 46.2701 39.5311 46.2701C43.1411 46.2701 46.0611 49.1901 46.0611 52.8001C46.0611 56.4101 43.1411 59.3301 39.5311 59.3301C35.9211 59.3301 33.0011 56.4001 33.0011 52.8001Z" fill="#CC8640"/>
<path d="M53.592 39.33L54.792 39.58C55.062 40.76 55.532 41.86 56.152 42.85L55.482 43.87C55.072 44.5 55.152 45.32 55.682 45.86L56.652 46.83C57.182 47.36 58.012 47.45 58.642 47.03L59.662 46.36C60.652 46.98 61.752 47.44 62.922 47.72L63.172 48.92C63.322 49.65 63.972 50.18 64.722 50.18H66.102C66.852 50.18 67.502 49.65 67.652 48.92L67.902 47.72C69.082 47.45 70.182 46.98 71.172 46.36L72.192 47.03C72.822 47.44 73.642 47.36 74.182 46.83L75.152 45.86C75.682 45.33 75.772 44.5 75.352 43.87L74.682 42.85C75.302 41.86 75.762 40.76 76.042 39.58L77.242 39.33C77.972 39.18 78.502 38.53 78.502 37.78V36.41C78.502 35.66 77.972 35.01 77.242 34.86L76.042 34.61C75.772 33.43 75.312 32.33 74.682 31.34L75.352 30.32C75.762 29.69 75.682 28.87 75.152 28.33L74.182 27.36C73.652 26.83 72.822 26.74 72.192 27.16L71.172 27.83C70.182 27.21 69.082 26.75 67.902 26.47L67.652 25.27C67.502 24.54 66.852 24.01 66.102 24.01H64.722C63.972 24.01 63.322 24.54 63.172 25.27L62.922 26.47C61.742 26.74 60.642 27.21 59.662 27.83L58.642 27.16C58.012 26.75 57.192 26.83 56.652 27.36L55.682 28.33C55.152 28.86 55.062 29.69 55.482 30.32L56.152 31.34C55.522 32.33 55.072 33.43 54.792 34.61L53.592 34.86C52.862 35.01 52.332 35.66 52.332 36.41V37.78C52.332 38.53 52.862 39.18 53.592 39.33ZM65.422 31.72C68.392 31.72 70.792 34.12 70.792 37.09C70.792 40.06 68.392 42.46 65.422 42.46C62.452 42.46 60.052 40.06 60.052 37.09C60.052 34.13 62.452 31.72 65.422 31.72Z" fill="#CC8640"/>
<path d="M85.1724 66.5199L80.5524 68.7299C80.2224 68.8899 79.8424 68.8799 79.5224 68.7199L73.2224 65.5299C72.7524 65.2999 72.5024 64.7699 72.6124 64.2599L74.0824 57.3599C74.1624 57.0099 74.3924 56.7099 74.7224 56.5599L79.3324 54.3499C79.9424 54.0599 79.9824 53.1699 79.3724 52.8499C75.3124 50.7499 70.2424 50.7299 65.9424 53.4599C62.3324 55.7399 60.1324 59.6099 59.7824 63.7099L38.2724 74.1499C36.5924 74.9499 35.4024 76.3699 34.8224 77.9999C34.2424 79.6299 34.2824 81.4799 35.0924 83.1599C36.7024 86.5199 40.7324 87.9499 44.1024 86.3399L65.6224 75.8799C69.4424 78.4799 74.5124 79.0399 78.9824 76.8999C82.9424 75.0099 85.5524 71.4299 86.3524 67.4299C86.4924 66.7499 85.7924 66.2199 85.1724 66.5199ZM43.0524 82.3899C41.6924 83.0399 40.0424 82.4599 39.3924 81.0999C38.7424 79.7399 39.3224 78.0899 40.6824 77.4399C42.0424 76.7899 43.6924 77.3699 44.3424 78.7299C44.9924 80.0899 44.4124 81.7399 43.0524 82.3899Z" fill="#CC8640"/>
</svg>
