<svg width="56" height="56" viewBox="0 0 56 56" fill="none" xmlns="http://www.w3.org/2000/svg">
<path d="M22.1332 11.4844H30.3294C31.2346 11.4844 31.9675 10.7494 31.9675 9.84375V1.64062C31.9675 0.735 31.2346 0 30.3294 0H22.1332C21.229 0 20.4951 0.735 20.4951 1.64062V9.84375C20.4951 10.7494 21.2289 11.4844 22.1332 11.4844Z" fill="#CC8640"/>
<path d="M46.779 32.4669C44.8874 32.4669 43.3542 34.0015 43.3542 35.8936V32.8093C43.3544 30.9163 41.8195 29.3827 39.9306 29.3826C38.039 29.3826 36.5058 30.916 36.5058 32.8093V29.3826C36.5062 27.4899 34.9716 25.9544 33.0822 25.9547C31.1906 25.9547 29.6574 27.4893 29.6574 29.3826V18.6441C29.6603 16.7239 28.0707 15.1693 26.1507 15.2174C24.28 15.2611 22.809 16.8394 22.809 18.713V38.5383L19.3384 35.0646C17.9824 33.7069 15.7764 33.7288 14.4448 35.1149C13.1463 36.469 13.2173 38.6324 14.5431 39.9591L19.3875 44.8077C21.6448 47.0674 22.4902 49.8236 23.2688 52.8501C23.4163 53.3652 23.5199 53.9799 23.6008 54.5815C23.7099 55.3941 24.4046 56.0001 25.2237 56.0001H26.2306H45.3212C46.0675 56.0001 46.7201 55.4954 46.9066 54.7717C47.3826 52.9245 48.0346 50.8464 48.6333 49.8346C49.6512 48.113 50.2026 46.1563 50.2026 44.1569V35.8936C50.2029 34.0006 48.6679 32.467 46.779 32.4669Z" fill="#CC8640"/>
<path d="M37.0011 18.4769H48.0278C49.2796 18.5163 50.1139 16.9972 49.4126 15.9602L43.9129 7.23974C43.3161 6.21566 41.7132 6.21566 41.1172 7.23974L35.6164 15.9602C34.9156 16.9968 35.751 18.5163 37.0011 18.4769Z" fill="#CC8640"/>
<path d="M17.2692 14.2188C17.2692 11.0523 14.6963 8.47656 11.5336 8.47656H11.5325C8.36872 8.47766 5.79688 11.0523 5.79688 14.2188C5.79688 17.3852 8.36872 19.9598 11.5325 19.9609H11.5336C14.6963 19.9609 17.2692 17.3852 17.2692 14.2188Z" fill="#CC8640"/>
</svg>
