<svg width="60" height="60" viewBox="0 0 60 60" fill="none" xmlns="http://www.w3.org/2000/svg">
<path d="M51.2489 12.6262V33.75C51.2489 38.575 47.3227 42.5 42.4989 42.5H25.8164L20.8164 47.5H35.2164L41.9814 54.265C42.4614 54.7437 43.0977 54.9987 43.7464 54.9987C44.0689 54.9987 44.3952 54.9362 44.7064 54.8075C45.6439 54.4187 46.2489 53.5125 46.2489 52.4975V47.5H49.9989C53.4452 47.5 56.2489 44.6962 56.2489 41.25V18.75C56.2489 15.7325 54.0977 13.2075 51.2489 12.6262Z" fill="#CC8640"/>
<path d="M42.5 5H10C6.55375 5 3.75 7.80375 3.75 11.25V33.75C3.75 37.1963 6.55375 40 10 40H13.75V44.9975C13.75 46.0125 14.355 46.9188 15.2925 47.3075C15.6038 47.4363 15.93 47.4987 16.2525 47.4987C16.9025 47.4987 17.5375 47.2437 18.0175 46.765L24.7825 40H42.5C45.9463 40 48.75 37.1963 48.75 33.75V11.25C48.75 7.80375 45.9463 5 42.5 5ZM26.25 32.5C25.56 32.5 25 31.94 25 31.25C25 30.56 25.56 30 26.25 30C26.94 30 27.5 30.56 27.5 31.25C27.5 31.94 26.94 32.5 26.25 32.5ZM28.9688 23.0562C28.0487 23.5625 27.5 24.3962 27.5 25.2875V26.25C27.5 26.94 26.9412 27.5 26.25 27.5C25.5588 27.5 25 26.94 25 26.25V25.2875C25 23.4712 26.0312 21.8188 27.76 20.8675C28.9913 20.1863 29.6087 18.7812 29.2937 17.3738C29.0387 16.26 28.1162 15.3362 26.9975 15.0812C26.1112 14.8775 25.2212 15.0425 24.4937 15.5425C23.7712 16.0387 23.2863 16.8175 23.1637 17.6775C23.065 18.36 22.4475 18.8387 21.7475 18.7375C21.065 18.6388 20.59 18.0062 20.6875 17.3225C20.9112 15.7725 21.7812 14.3725 23.0775 13.4825C24.3875 12.5838 25.98 12.2887 27.5525 12.6437C29.6187 13.1163 31.26 14.7563 31.7313 16.8225C32.2938 19.3275 31.1837 21.83 28.9688 23.0562Z" fill="#CC8640"/>
</svg>
